<?xml version="1.0" encoding="UTF-8" standalone="no"?>
<svg
   xmlns:dc="http://purl.org/dc/elements/1.1/"
   xmlns:cc="http://creativecommons.org/ns#"
   xmlns:rdf="http://www.w3.org/1999/02/22-rdf-syntax-ns#"
   xmlns:svg="http://www.w3.org/2000/svg"
   xmlns="http://www.w3.org/2000/svg"
   xmlns:sodipodi="http://sodipodi.sourceforge.net/DTD/sodipodi-0.dtd"
   xmlns:inkscape="http://www.inkscape.org/namespaces/inkscape"
   inkscape:export-ydpi="96"
   inkscape:export-xdpi="96"
   inkscape:export-filename="C:\Users\Derek\Desktop\blazorStamp.png"
   sodipodi:docname="blazorStamp.svg"
   inkscape:version="1.0 (4035a4fb49, 2020-05-01)"
   id="svg8"
   version="1.1"
   viewBox="0 0 124.00112 122.57175"
   height="122.57175mm"
   width="124.00112mm">
  <defs
     id="defs2" />
  <sodipodi:namedview
     fit-margin-bottom="0"
     fit-margin-right="0"
     fit-margin-left="0"
     fit-margin-top="0"
     inkscape:document-rotation="0"
     inkscape:window-maximized="0"
     inkscape:window-y="266"
     inkscape:window-x="260"
     inkscape:window-height="718"
     inkscape:window-width="1218"
     inkscape:snap-global="true"
     showgrid="false"
     inkscape:current-layer="Main"
     inkscape:document-units="mm"
     inkscape:cy="295.41015"
     inkscape:cx="-240.86064"
     inkscape:zoom="0.35"
     inkscape:pageshadow="2"
     inkscape:pageopacity="0.0"
     borderopacity="1.0"
     bordercolor="#666666"
     pagecolor="#ffffff"
     id="base" />
  <metadata
     id="metadata5">
    <rdf:RDF>
      <cc:Work
         rdf:about="">
        <dc:format>image/svg+xml</dc:format>
        <dc:type
           rdf:resource="http://purl.org/dc/dcmitype/StillImage" />
        <dc:title></dc:title>
      </cc:Work>
    </rdf:RDF>
  </metadata>
  <g
     transform="translate(-40.671163,-70.006064)"
     id="layer1"
     inkscape:groupmode="layer"
     inkscape:label="Layer 1">
    <g
       transform="matrix(1,0,0,-1,9.0714254,219.4946)"
       id="Main">
      <g
         id="g257"
         transform="matrix(0.26458333,0,0,0.26458333,31.599738,24.70678)">
        <g
           id="g28">
          <g
             id="g26">
            <g
               id="g24">
              <path
                 id="path10"
                 d="m 168.309,347.725 c -3.092,3.092 -3.092,8.116 0,11.208 1.544,1.548 3.56,2.336 5.584,2.332 2.056,0 4.076,-0.788 5.62,-2.332 3.088,-3.092 3.088,-8.12 0,-11.208 -3.092,-3.085 -8.12,-3.085 -11.204,0 z"
                 inkscape:connector-curvature="0" />
              <path
                 id="path12"
                 d="m 123.525,302.941 c -3.132,3.092 -3.132,8.12 0,11.212 1.54,1.54 3.56,2.292 5.576,2.292 2.024,0 4.044,-0.752 5.584,-2.292 3.092,-3.096 3.092,-8.124 0,-11.212 -3.08,-3.085 -8.076,-3.085 -11.16,0 z"
                 inkscape:connector-curvature="0" />
              <path
                 id="path14"
                 d="m 190.721,370.14 c -3.088,3.092 -3.088,8.116 0,11.208 1.544,1.54 3.56,2.292 5.584,2.292 2.02,0 4.076,-0.752 5.62,-2.292 3.092,-3.092 3.092,-8.116 0,-11.208 -3.124,-3.088 -8.116,-3.088 -11.204,0 z"
                 inkscape:connector-curvature="0" />
              <path
                 id="path16"
                 d="m 145.897,325.312 c -3.088,3.132 -3.088,8.12 0,11.208 1.54,1.548 3.6,2.336 5.624,2.336 2.016,0 4.04,-0.788 5.584,-2.336 3.084,-3.092 3.084,-8.076 0,-11.208 -3.092,-3.084 -8.124,-3.084 -11.208,0 z"
                 inkscape:connector-curvature="0" />
              <path
                 id="path18"
                 d="m 269.081,437.337 c -3.084,-3.084 -8.08,-3.084 -11.164,0 -3.088,3.092 -3.088,8.12 0,11.208 1.548,1.544 3.564,2.292 5.584,2.296 2.016,0 4.032,-0.752 5.58,-2.296 3.128,-3.088 3.128,-8.117 0,-11.208 z"
                 inkscape:connector-curvature="0" />
              <path
                 id="path20"
                 d="m 235.505,414.921 c -3.084,3.092 -3.084,8.124 0,11.208 1.544,1.544 3.568,2.336 5.584,2.336 2.056,0 4.08,-0.792 5.62,-2.336 3.088,-3.088 3.088,-8.12 0,-11.208 -3.088,-3.085 -8.12,-3.085 -11.204,0 z"
                 inkscape:connector-curvature="0" />
              <path
                 id="path22"
                 d="m 213.089,392.553 c -3.084,3.088 -3.084,8.08 0,11.168 1.548,1.54 3.608,2.336 5.624,2.336 2.02,0 4.04,-0.792 5.584,-2.336 3.088,-3.088 3.088,-8.08 0,-11.168 -3.088,-3.085 -8.12,-3.085 -11.208,0 z"
                 inkscape:connector-curvature="0" />
            </g>
          </g>
        </g>
        <g
           id="g48">
          <g
             id="g46">
            <g
               id="g44">
              <path
                 id="path30"
                 d="m 325.393,162.529 c -3.088,3.092 -3.088,8.12 0,11.212 1.544,1.54 3.564,2.328 5.588,2.328 2.048,0 4.072,-0.784 5.62,-2.328 3.084,-3.096 3.084,-8.124 0,-11.212 -3.092,-3.085 -8.12,-3.085 -11.208,0 z"
                 inkscape:connector-curvature="0" />
              <path
                 id="path32"
                 d="m 302.977,140.157 c -3.084,3.088 -3.084,8.076 0,11.164 1.544,1.584 3.564,2.336 5.624,2.336 2.02,0 4.04,-0.752 5.588,-2.336 3.084,-3.088 3.084,-8.076 0,-11.164 -3.092,-3.128 -8.124,-3.128 -11.212,0 z"
                 inkscape:connector-curvature="0" />
              <path
                 id="path34"
                 d="m 280.605,117.741 c -3.132,3.092 -3.132,8.12 0,11.208 1.548,1.544 3.568,2.296 5.584,2.296 2.016,0 4.036,-0.752 5.58,-2.296 3.132,-3.092 3.132,-8.12 0,-11.208 -3.08,-3.084 -8.076,-3.084 -11.164,0 z"
                 inkscape:connector-curvature="0" />
              <path
                 id="path36"
                 d="m 258.193,95.329 c -3.088,3.096 -3.088,8.124 0,11.212 1.544,1.544 3.56,2.332 5.588,2.332 2.016,0 4.076,-0.788 5.624,-2.332 3.084,-3.092 3.084,-8.12 0,-11.212 -3.092,-3.084 -8.124,-3.084 -11.212,0 z"
                 inkscape:connector-curvature="0" />
              <path
                 id="path38"
                 d="m 403.793,229.72 c -3.088,-3.084 -8.12,-3.084 -11.204,0 -3.088,3.096 -3.088,8.12 0,11.208 1.54,1.548 3.564,2.336 5.58,2.336 2.06,0 4.08,-0.788 5.624,-2.336 3.088,-3.088 3.088,-8.115 0,-11.208 z"
                 inkscape:connector-curvature="0" />
              <path
                 id="path40"
                 d="m 370.177,207.353 c -3.092,3.092 -3.092,8.08 0,11.208 1.548,1.544 3.604,2.296 5.624,2.296 2.016,0 4.032,-0.748 5.58,-2.296 3.092,-3.128 3.092,-8.12 0,-11.208 -3.084,-3.084 -8.116,-3.084 -11.204,0 z"
                 inkscape:connector-curvature="0" />
              <path
                 id="path42"
                 d="m 347.801,184.941 c -3.084,3.092 -3.084,8.116 0,11.208 1.544,1.544 3.564,2.336 5.588,2.336 2.02,0 4.04,-0.792 5.624,-2.336 3.048,-3.092 3.048,-8.116 0,-11.208 -3.132,-3.088 -8.124,-3.088 -11.212,0 z"
                 inkscape:connector-curvature="0" />
            </g>
          </g>
        </g>
        <g
           id="g80">
          <g
             id="g78">
            <g
               id="g76">
              <path
                 id="path50"
                 d="m 91.881,100.277 c -3.084,3.096 -3.084,8.124 0,11.212 1.544,1.544 3.608,2.292 5.628,2.292 2.016,0 4.036,-0.748 5.584,-2.292 3.084,-3.092 3.084,-8.12 0,-11.212 -3.092,-3.084 -8.084,-3.084 -11.212,0 z"
                 inkscape:connector-curvature="0" />
              <path
                 id="path52"
                 d="m 114.297,122.693 c -3.088,3.092 -3.088,8.08 0,11.212 1.544,1.536 3.564,2.292 5.624,2.292 2.016,0 4.036,-0.752 5.584,-2.292 3.084,-3.132 3.084,-8.12 0,-11.212 -3.096,-3.084 -8.124,-3.084 -11.208,0 z"
                 inkscape:connector-curvature="0" />
              <path
                 id="path54"
                 d="m 24.689,33.081 c -3.088,3.088 -3.088,8.12 0,11.208 1.58,1.544 3.6,2.296 5.62,2.296 2.016,0 4.04,-0.752 5.584,-2.296 3.088,-3.092 3.088,-8.12 0,-11.208 -3.092,-3.088 -8.08,-3.088 -11.204,0 z"
                 inkscape:connector-curvature="0" />
              <path
                 id="path56"
                 d="m 2.313,10.668 c -3.084,3.092 -3.084,8.12 0,11.208 1.544,1.544 3.564,2.336 5.584,2.332 2.02,0 4.08,-0.788 5.62,-2.332 3.088,-3.088 3.088,-8.12 0,-11.208 -3.124,-3.087 -8.12,-3.087 -11.204,0 z"
                 inkscape:connector-curvature="0" />
              <path
                 id="path58"
                 d="m 136.709,145.061 c -3.088,3.096 -3.088,8.12 0,11.212 1.544,1.544 3.564,2.336 5.584,2.332 2.02,0 4.076,-0.792 5.624,-2.332 3.088,-3.092 3.088,-8.12 0,-11.212 -3.092,-3.084 -8.12,-3.084 -11.208,0 z"
                 inkscape:connector-curvature="0" />
              <path
                 id="path60"
                 d="m 47.097,55.496 c -3.088,3.088 -3.088,8.076 0,11.204 1.548,1.544 3.568,2.296 5.624,2.296 2.02,0 4.036,-0.752 5.584,-2.296 3.088,-3.124 3.088,-8.116 0,-11.204 -3.092,-3.087 -8.12,-3.087 -11.208,0 z"
                 inkscape:connector-curvature="0" />
              <path
                 id="path62"
                 d="m 69.509,77.868 c -3.084,3.088 -3.084,8.116 0,11.208 1.548,1.54 3.568,2.336 5.584,2.332 2.024,0 4.044,-0.792 5.628,-2.332 3.084,-3.092 3.084,-8.12 0,-11.208 -3.132,-3.088 -8.12,-3.088 -11.212,0 z"
                 inkscape:connector-curvature="0" />
              <path
                 id="path64"
                 d="m 226.317,234.673 c -3.128,3.092 -3.128,8.12 0,11.208 1.548,1.544 3.564,2.3 5.584,2.3 2.016,0 4.036,-0.756 5.584,-2.3 3.084,-3.092 3.084,-8.116 0,-11.208 -3.092,-3.088 -8.08,-3.088 -11.168,0 z"
                 inkscape:connector-curvature="0" />
              <path
                 id="path66"
                 d="m 248.689,257.085 c -3.084,3.092 -3.084,8.08 0,11.208 1.548,1.548 3.564,2.3 5.624,2.3 2.02,0 4.036,-0.752 5.584,-2.3 3.092,-3.128 3.092,-8.12 0,-11.208 -3.092,-3.085 -8.12,-3.085 -11.208,0 z"
                 inkscape:connector-curvature="0" />
              <path
                 id="path68"
                 d="m 282.305,279.501 c -3.084,-3.124 -8.116,-3.124 -11.204,0 -3.088,3.088 -3.088,8.08 0,11.164 1.544,1.552 3.568,2.336 5.584,2.336 2.06,0 4.084,-0.784 5.62,-2.336 3.088,-3.08 3.088,-8.076 0,-11.164 z"
                 inkscape:connector-curvature="0" />
              <path
                 id="path70"
                 d="m 203.905,212.261 c -3.084,3.132 -3.084,8.12 0,11.208 1.544,1.548 3.564,2.336 5.592,2.336 2.012,0 4.072,-0.788 5.62,-2.336 3.084,-3.092 3.084,-8.076 0,-11.208 -3.096,-3.088 -8.124,-3.088 -11.212,0 z"
                 inkscape:connector-curvature="0" />
              <path
                 id="path72"
                 d="m 181.489,189.889 c -3.084,3.092 -3.084,8.076 0,11.208 1.548,1.54 3.572,2.296 5.628,2.292 2.016,0 4.04,-0.752 5.584,-2.292 3.084,-3.132 3.084,-8.12 0,-11.208 -3.092,-3.088 -8.12,-3.088 -11.212,0 z"
                 inkscape:connector-curvature="0" />
              <path
                 id="path74"
                 d="m 159.117,167.48 c -3.128,3.088 -3.128,8.116 0,11.208 1.548,1.54 3.568,2.292 5.584,2.292 2.02,0 4.04,-0.752 5.584,-2.292 3.088,-3.092 3.088,-8.12 0,-11.208 -3.088,-3.087 -8.076,-3.087 -11.168,0 z"
                 inkscape:connector-curvature="0" />
            </g>
          </g>
        </g>
        <g
           id="g106">
          <g
             id="g104">
            <g
               id="g102">
              <path
                 id="path82"
                 d="m 162.049,84.837 c -3.084,3.088 -3.084,8.12 0,11.204 1.544,1.548 3.564,2.3 5.588,2.3 2.02,0 4.076,-0.752 5.624,-2.3 3.084,-3.084 3.084,-8.116 0,-11.204 -3.092,-3.088 -8.12,-3.088 -11.212,0 z"
                 inkscape:connector-curvature="0" />
              <path
                 id="path84"
                 d="m 184.461,107.209 c -3.124,3.128 -3.124,8.12 0,11.208 1.544,1.544 3.568,2.336 5.584,2.336 2.016,0 4.04,-0.792 5.584,-2.336 3.084,-3.088 3.084,-8.08 0,-11.208 -3.088,-3.084 -8.08,-3.084 -11.168,0 z"
                 inkscape:connector-curvature="0" />
              <path
                 id="path86"
                 d="m 139.637,62.425 c -3.084,3.092 -3.084,8.12 0,11.204 1.548,1.544 3.564,2.296 5.624,2.296 2.02,0 4.036,-0.752 5.584,-2.296 3.084,-3.088 3.084,-8.116 0,-11.204 -3.092,-3.088 -8.116,-3.088 -11.208,0 z"
                 inkscape:connector-curvature="0" />
              <path
                 id="path88"
                 d="m 117.225,40.013 c -3.084,3.128 -3.084,8.12 0,11.204 1.588,1.544 3.604,2.34 5.628,2.34 2.016,0 4.036,-0.792 5.584,-2.34 3.084,-3.088 3.084,-8.076 0,-11.204 -3.096,-3.088 -8.084,-3.088 -11.212,0 z"
                 inkscape:connector-curvature="0" />
              <path
                 id="path90"
                 d="m 206.837,129.621 c -3.088,3.092 -3.088,8.124 0,11.208 1.54,1.544 3.564,2.336 5.624,2.336 2.012,0 4.036,-0.792 5.584,-2.336 3.084,-3.088 3.084,-8.12 0,-11.208 -3.096,-3.088 -8.124,-3.088 -11.208,0 z"
                 inkscape:connector-curvature="0" />
              <path
                 id="path92"
                 d="m 251.657,174.449 c -3.084,3.084 -3.084,8.076 0,11.168 1.548,1.54 3.568,2.332 5.584,2.332 2.024,0 4.044,-0.792 5.628,-2.332 3.088,-3.092 3.088,-8.08 0,-11.168 -3.132,-3.128 -8.12,-3.128 -11.212,0 z"
                 inkscape:connector-curvature="0" />
              <path
                 id="path94"
                 d="m 330.029,241.645 c -3.088,-3.128 -8.084,-3.128 -11.172,0 -3.084,3.088 -3.084,8.076 0,11.168 1.548,1.54 3.564,2.336 5.588,2.336 2.016,0 4.036,-0.796 5.584,-2.336 3.124,-3.092 3.124,-8.08 0,-11.168 z"
                 inkscape:connector-curvature="0" />
              <path
                 id="path96"
                 d="m 296.449,219.228 c -3.092,3.096 -3.092,8.12 0,11.212 1.544,1.544 3.564,2.296 5.58,2.292 2.056,0 4.076,-0.748 5.624,-2.292 3.088,-3.092 3.088,-8.12 0,-11.212 -3.096,-3.083 -8.12,-3.083 -11.204,0 z"
                 inkscape:connector-curvature="0" />
              <path
                 id="path98"
                 d="m 274.029,196.821 c -3.08,3.092 -3.08,8.12 0,11.208 1.548,1.54 3.568,2.336 5.628,2.336 2.02,0 4.04,-0.796 5.584,-2.336 3.084,-3.092 3.084,-8.12 0,-11.208 -3.088,-3.088 -8.12,-3.088 -11.212,0 z"
                 inkscape:connector-curvature="0" />
              <path
                 id="path100"
                 d="m 229.249,152.037 c -3.088,3.088 -3.088,8.08 0,11.204 1.544,1.544 3.564,2.296 5.588,2.3 2.02,0 4.072,-0.756 5.62,-2.3 3.088,-3.124 3.088,-8.12 0,-11.204 -3.092,-3.092 -8.12,-3.092 -11.208,0 z"
                 inkscape:connector-curvature="0" />
            </g>
          </g>
        </g>
        <g
           id="g132">
          <g
             id="g130">
            <g
               id="g128">
              <path
                 id="path108"
                 d="m 91.805,185.573 c -3.088,3.088 -3.088,8.08 0,11.204 1.544,1.552 3.56,2.3 5.584,2.3 2.02,0 4.072,-0.752 5.62,-2.3 3.092,-3.124 3.092,-8.116 0,-11.204 -3.088,-3.088 -8.116,-3.088 -11.204,0 z"
                 inkscape:connector-curvature="0" />
              <path
                 id="path110"
                 d="m 114.177,207.952 c -3.088,3.124 -3.088,8.116 0,11.2 1.58,1.544 3.604,2.336 5.624,2.336 2.02,0 4.036,-0.792 5.58,-2.336 3.092,-3.084 3.092,-8.076 0,-11.2 -3.084,-3.091 -8.076,-3.091 -11.204,0 z"
                 inkscape:connector-curvature="0" />
              <path
                 id="path112"
                 d="m 47.017,140.753 c -3.124,3.124 -3.124,8.116 0,11.204 1.548,1.544 3.568,2.336 5.588,2.336 2.012,0 4.036,-0.792 5.584,-2.336 3.084,-3.088 3.084,-8.076 0,-11.204 -3.088,-3.093 -8.084,-3.093 -11.172,0 z"
                 inkscape:connector-curvature="0" />
              <path
                 id="path114"
                 d="m 69.393,163.165 c -3.088,3.088 -3.088,8.116 0,11.204 1.54,1.544 3.56,2.296 5.624,2.296 2.016,0 4.036,-0.752 5.584,-2.296 3.088,-3.088 3.088,-8.12 0,-11.204 -3.092,-3.092 -8.12,-3.092 -11.208,0 z"
                 inkscape:connector-curvature="0" />
              <path
                 id="path116"
                 d="m 136.589,230.361 c -3.088,3.088 -3.088,8.12 0,11.204 1.54,1.544 3.564,2.336 5.62,2.336 2.02,0 4.04,-0.788 5.584,-2.336 3.088,-3.088 3.088,-8.12 0,-11.204 -3.088,-3.089 -8.12,-3.089 -11.204,0 z"
                 inkscape:connector-curvature="0" />
              <path
                 id="path118"
                 d="m 259.817,342.384 c -3.096,-3.088 -8.12,-3.088 -11.204,0 -3.092,3.084 -3.092,8.076 0,11.168 1.54,1.58 3.56,2.332 5.584,2.332 2.012,0 4.072,-0.752 5.62,-2.332 3.088,-3.092 3.088,-8.083 0,-11.168 z"
                 inkscape:connector-curvature="0" />
              <path
                 id="path120"
                 d="m 203.785,297.556 c -3.088,3.088 -3.088,8.116 0,11.208 1.544,1.54 3.564,2.332 5.624,2.332 2.02,0 4.04,-0.792 5.584,-2.332 3.088,-3.092 3.088,-8.12 0,-11.208 -3.088,-3.088 -8.12,-3.088 -11.208,0 z"
                 inkscape:connector-curvature="0" />
              <path
                 id="path122"
                 d="m 159.005,252.772 c -3.092,3.088 -3.092,8.116 0,11.204 1.544,1.548 3.56,2.296 5.584,2.296 2.056,0 4.072,-0.748 5.62,-2.296 3.088,-3.092 3.088,-8.12 0,-11.204 -3.092,-3.091 -8.12,-3.091 -11.204,0 z"
                 inkscape:connector-curvature="0" />
              <path
                 id="path124"
                 d="m 226.201,319.968 c -3.088,3.088 -3.088,8.116 0,11.204 1.544,1.548 3.56,2.3 5.584,2.296 2.02,0 4.08,-0.752 5.62,-2.296 3.088,-3.088 3.088,-8.116 0,-11.204 -3.088,-3.088 -8.12,-3.088 -11.204,0 z"
                 inkscape:connector-curvature="0" />
              <path
                 id="path126"
                 d="m 181.417,275.181 c -3.088,3.088 -3.088,8.08 0,11.168 1.54,1.548 3.56,2.336 5.58,2.336 2.024,0 4.04,-0.792 5.584,-2.336 3.132,-3.088 3.132,-8.084 0,-11.168 -3.088,-3.125 -8.076,-3.125 -11.164,0 z"
                 inkscape:connector-curvature="0" />
            </g>
          </g>
        </g>
        <g
           id="g140" />
        <g
           id="g142" />
        <g
           id="g144" />
        <g
           id="g146" />
        <g
           id="g148" />
        <g
           id="g150" />
        <g
           id="g152" />
        <g
           id="g154" />
        <g
           id="g156" />
        <g
           id="g158" />
        <g
           id="g160" />
        <g
           id="g162" />
        <g
           id="g164" />
        <g
           id="g166" />
        <g
           id="g168" />
      </g>
      <g
         id="g338"
         transform="matrix(0.12668536,0,0,0.1250073,97.481356,88.151579)">
        <g
           id="g267">
          <path
             id="path259"
             d="m 170.563,490.667 c -5.888,0 -10.667,-4.779 -10.667,-10.667 V 53.333 c 0,-5.888 4.779,-10.667 10.667,-10.667 5.888,0 10.667,4.779 10.667,10.667 V 480 c 0,5.888 -4.779,10.667 -10.667,10.667 z"
             style="fill:#f44336"
             inkscape:connector-curvature="0" />
          <path
             id="path261"
             d="m 319.896,448 c -5.888,0 -10.667,-4.779 -10.667,-10.667 V 10.667 C 309.23,4.779 314.008,0 319.896,0 c 5.888,0 10.667,4.779 10.667,10.667 v 426.667 c 0,5.887 -4.779,10.666 -10.667,10.666 z"
             style="fill:#f44336"
             inkscape:connector-curvature="0" />
          <path
             id="path263"
             d="m 42.563,405.333 c -5.888,0 -10.667,-4.779 -10.667,-10.667 0,-4.459 2.773,-8.448 6.976,-10.005 L 444.205,235.328 c 5.483,-2.155 11.669,0.555 13.824,6.037 2.155,5.482 -0.555,11.669 -6.037,13.824 -0.149,0.064 -0.277,0.107 -0.427,0.149 L 46.232,404.672 c -1.152,0.448 -2.41,0.661 -3.669,0.661 z"
             style="fill:#f44336"
             inkscape:connector-curvature="0" />
          <path
             id="path265"
             d="m 42.563,256 c -5.888,0 -10.667,-4.779 -10.667,-10.667 0,-4.459 2.773,-8.448 6.976,-10.005 L 444.206,85.995 c 5.483,-2.155 11.669,0.555 13.824,6.037 2.155,5.482 -0.555,11.669 -6.037,13.824 -0.149,0.064 -0.277,0.107 -0.427,0.149 L 46.232,255.339 C 45.08,255.787 43.822,256 42.563,256 Z"
             style="fill:#f44336"
             inkscape:connector-curvature="0" />
        </g>
        <path
           id="path269"
           d="m 170.563,490.667 c -5.888,0 -10.667,-4.779 -10.667,-10.667 V 53.333 c 0,-5.888 4.779,-10.667 10.667,-10.667 5.888,0 10.667,4.779 10.667,10.667 V 480 c 0,5.888 -4.779,10.667 -10.667,10.667 z"
           inkscape:connector-curvature="0" />
        <path
           id="path271"
           d="m 319.896,448 c -5.888,0 -10.667,-4.779 -10.667,-10.667 V 10.667 C 309.23,4.779 314.008,0 319.896,0 c 5.888,0 10.667,4.779 10.667,10.667 v 426.667 c 0,5.887 -4.779,10.666 -10.667,10.666 z"
           inkscape:connector-curvature="0" />
        <path
           id="path273"
           d="m 42.563,405.333 c -4.352,0 -8.427,-2.667 -10.005,-6.976 -2.027,-5.525 0.789,-11.669 6.315,-13.696 L 444.206,235.328 c 5.44,-2.027 11.648,0.789 13.696,6.315 2.048,5.525 -0.789,11.648 -6.315,13.696 L 46.254,404.672 c -1.216,0.448 -2.454,0.661 -3.691,0.661 z"
           inkscape:connector-curvature="0" />
        <path
           id="path275"
           d="m 42.563,256 c -4.352,0 -8.427,-2.667 -10.005,-6.976 -2.027,-5.525 0.789,-11.648 6.315,-13.696 L 444.206,85.995 c 5.44,-2.048 11.648,0.789 13.696,6.315 2.048,5.525 -0.789,11.648 -6.315,13.696 L 46.254,255.339 C 45.038,255.787 43.8,256 42.563,256 Z"
           inkscape:connector-curvature="0" />
        <g
           id="g277" />
        <g
           id="g279" />
        <g
           id="g281" />
        <g
           id="g283" />
        <g
           id="g285" />
        <g
           id="g287" />
        <g
           id="g289" />
        <g
           id="g291" />
        <g
           id="g293" />
        <g
           id="g295" />
        <g
           id="g297" />
        <g
           id="g299" />
        <g
           id="g301" />
        <g
           id="g303" />
        <g
           id="g305" />
      </g>
    </g>
  </g>
</svg>
