<svg id="Layer_1" enable-background="new 0 0 512.453 512.453" height="512" viewBox="0 0 512.453 512.453" width="512" xmlns="http://www.w3.org/2000/svg" xmlns:xlink="http://www.w3.org/1999/xlink">
  <linearGradient id="SVGID_1_" gradientUnits="userSpaceOnUse" x1="256.226" x2="256.226" y1=".429" y2="512.024">
    <stop offset="0" stop-color="#281c7b"/>
    <stop offset="1" stop-color="#6A0683"/>
  </linearGradient>
  <path d="m474.596 13.051c-.793.264-80.273 26.863-171.44 65.945-123.704 53.029-209.266 102.8-254.31 147.93-.003.004-.007.007-.011.011-.001.001-.003.003-.004.005-.003.004-.007.007-.011.011-65.097 65.115-65.092 171.05.016 236.158 31.542 31.542 73.479 48.913 118.087 48.913s86.458-17.458 118-49c46.471-46.575 96.92-132.359 149.742-255.111 38.94-90.489 64.985-168.82 65.244-169.601l12.545-37.882zm-217.881 421.783c-23.985 23.982-55.875 37.189-89.793 37.189-33.923 0-65.815-13.21-89.802-37.197-49.518-49.518-49.518-130.088 0-179.605 23.986-23.987 55.879-37.197 89.802-37.197s65.815 13.21 89.802 37.197c18.052 18.052 29.516 40.233 34.405 63.531 8.414-14.577 16.989-30.413 25.669-47.409-7.871-16.045-18.465-31.081-31.79-44.405-26.838-26.838-61.204-43.408-98.335-47.756 91.126-49.945 203.384-93.257 261.537-114.412-31.134 85.701-110.68 289.062-191.495 370.064zm-89.793-173.81c-45.215 0-82 36.785-82 82s36.785 82 82 82 82-36.785 82-82-36.786-82-82-82zm0 124c-23.159 0-42-18.841-42-42s18.841-42 42-42 42 18.841 42 42-18.841 42-42 42z" fill="url(#SVGID_1_)"/>
</svg>