<?xml version="1.0" encoding="iso-8859-1"?>
<!-- Generator: Adobe Illustrator 19.0.0, SVG Export Plug-In . SVG Version: 6.00 Build 0)  -->
<svg version="1.1" id="Capa_1" xmlns="http://www.w3.org/2000/svg" xmlns:xlink="http://www.w3.org/1999/xlink" x="0px" y="0px"
	 viewBox="0 0 479.764 479.764" style="enable-background:new 0 0 479.764 479.764;" xml:space="preserve">
<linearGradient id="SVGID_1_" gradientUnits="userSpaceOnUse" x1="-53.5881" y1="615.4641" x2="-53.5881" y2="553.0811" gradientTransform="matrix(8 0 0 -8 455.7277 4909.5552)">
	<stop  offset="0" style="stop-color:#FFF33B"/>
	<stop  offset="0.04" style="stop-color:#FEE72E"/>
	<stop  offset="0.117" style="stop-color:#FED51B"/>
	<stop  offset="0.196" style="stop-color:#FDCA10"/>
	<stop  offset="0.281" style="stop-color:#FDC70C"/>
	<stop  offset="0.669" style="stop-color:#F3903F"/>
	<stop  offset="0.888" style="stop-color:#ED683C"/>
	<stop  offset="1" style="stop-color:#E93E3A"/>
</linearGradient>
<path style="fill:url(#SVGID_1_);" d="M16.312,216.306c0.234-4.418-3.158-8.19-7.576-8.424c-4.418-0.234-8.19,3.158-8.424,7.576
	c-2.597,51.156,11.066,101.822,39.032,144.736c2.43,3.696,7.396,4.722,11.092,2.292c3.696-2.43,4.722-7.396,2.292-11.092l0,0
	C26.64,311.335,13.893,264.05,16.312,216.306z"/>
<g>
	
		<linearGradient id="SVGID_2_" gradientUnits="userSpaceOnUse" x1="-48.8581" y1="615.4641" x2="-48.8581" y2="553.0811" gradientTransform="matrix(8 0 0 -8 455.7277 4909.5552)">
		<stop  offset="0" style="stop-color:#FFF33B"/>
		<stop  offset="0.04" style="stop-color:#FEE72E"/>
		<stop  offset="0.117" style="stop-color:#FED51B"/>
		<stop  offset="0.196" style="stop-color:#FDCA10"/>
		<stop  offset="0.281" style="stop-color:#FDC70C"/>
		<stop  offset="0.669" style="stop-color:#F3903F"/>
		<stop  offset="0.888" style="stop-color:#ED683C"/>
		<stop  offset="1" style="stop-color:#E93E3A"/>
	</linearGradient>
	<path style="fill:url(#SVGID_2_);" d="M51.44,191.706c0.786-4.348-2.101-8.51-6.449-9.296c-4.266-0.772-8.371,1.996-9.255,6.24
		c-12.108,63.143,5.459,128.349,47.648,176.864c2.684,3.51,7.704,4.18,11.214,1.496c3.51-2.684,4.18-7.704,1.496-11.214
		c-0.218-0.286-0.456-0.556-0.711-0.81C56.456,310.187,40.255,249.992,51.44,191.706L51.44,191.706z"/>
	
		<linearGradient id="SVGID_3_" gradientUnits="userSpaceOnUse" x1="-0.3475" y1="615.4641" x2="-0.3475" y2="553.0811" gradientTransform="matrix(8 0 0 -8 455.7277 4909.5552)">
		<stop  offset="0" style="stop-color:#FFF33B"/>
		<stop  offset="0.04" style="stop-color:#FEE72E"/>
		<stop  offset="0.117" style="stop-color:#FED51B"/>
		<stop  offset="0.196" style="stop-color:#FDCA10"/>
		<stop  offset="0.281" style="stop-color:#FDC70C"/>
		<stop  offset="0.669" style="stop-color:#F3903F"/>
		<stop  offset="0.888" style="stop-color:#ED683C"/>
		<stop  offset="1" style="stop-color:#E93E3A"/>
	</linearGradient>
	<path style="fill:url(#SVGID_3_);" d="M440.84,97.418c-2.408-3.705-7.363-4.756-11.068-2.348s-4.756,7.363-2.348,11.068
		c25.969,40.152,38.571,87.491,36,135.24c-0.245,4.409,3.127,8.183,7.536,8.432h0.456c4.249,0.007,7.762-3.31,8-7.552
		C482.156,191.118,468.654,140.421,440.84,97.418L440.84,97.418z"/>
	
		<linearGradient id="SVGID_4_" gradientUnits="userSpaceOnUse" x1="-5.0551" y1="615.4641" x2="-5.0551" y2="553.0811" gradientTransform="matrix(8 0 0 -8 455.7277 4909.5552)">
		<stop  offset="0" style="stop-color:#FFF33B"/>
		<stop  offset="0.04" style="stop-color:#FEE72E"/>
		<stop  offset="0.117" style="stop-color:#FED51B"/>
		<stop  offset="0.196" style="stop-color:#FDCA10"/>
		<stop  offset="0.281" style="stop-color:#FDC70C"/>
		<stop  offset="0.669" style="stop-color:#F3903F"/>
		<stop  offset="0.888" style="stop-color:#ED683C"/>
		<stop  offset="1" style="stop-color:#E93E3A"/>
	</linearGradient>
	<path style="fill:url(#SVGID_4_);" d="M385.496,91.13c-3.334,2.895-3.692,7.943-0.8,11.28
		c38.821,44.892,54.877,105.125,43.552,163.384c-0.861,4.333,1.953,8.545,6.287,9.406c0.003,0.001,0.006,0.001,0.009,0.002
		c0.527,0.102,1.063,0.15,1.6,0.144c3.802,0.001,7.08-2.675,7.84-6.4c12.264-63.115-5.137-128.365-47.2-176.992
		c-2.887-3.344-7.939-3.715-11.283-0.828C385.499,91.127,385.498,91.129,385.496,91.13z"/>
	
		<linearGradient id="SVGID_5_" gradientUnits="userSpaceOnUse" x1="-27.6976" y1="615.4641" x2="-27.6976" y2="553.0811" gradientTransform="matrix(8 0 0 -8 455.7277 4909.5552)">
		<stop  offset="0" style="stop-color:#FFF33B"/>
		<stop  offset="0.04" style="stop-color:#FEE72E"/>
		<stop  offset="0.117" style="stop-color:#FED51B"/>
		<stop  offset="0.196" style="stop-color:#FDCA10"/>
		<stop  offset="0.281" style="stop-color:#FDC70C"/>
		<stop  offset="0.669" style="stop-color:#F3903F"/>
		<stop  offset="0.888" style="stop-color:#ED683C"/>
		<stop  offset="1" style="stop-color:#E93E3A"/>
	</linearGradient>
	<path style="fill:url(#SVGID_5_);" d="M360.864,356.306c70.544-66.621,73.723-177.815,7.102-248.359
		c-3.656-3.871-7.486-7.574-11.478-11.097c13.817-32.486-1.317-70.022-33.802-83.839s-70.022,1.317-83.839,33.802
		c-0.811,1.907-1.529,3.852-2.151,5.828c-11.611,0.19-23.173,1.549-34.512,4.056l-8.36-31.2l23.2-6.208
		c4.263-1.162,6.776-5.56,5.615-9.822c-1.154-4.235-5.505-6.749-9.751-5.634l-61.824,16.56c-4.268,1.142-6.802,5.528-5.66,9.796
		c0.936,3.497,4.104,5.93,7.724,5.932c0.702,0,1.401-0.092,2.08-0.272l23.2-6.216l8.352,31.2c-11.072,3.5-21.766,8.102-31.92,13.736
		c-26.447-23.384-66.842-20.901-90.226,5.545s-20.901,66.842,5.545,90.226c0.954,0.844,1.934,1.659,2.937,2.444
		c-26.64,79.296,6.327,166.377,78.8,208.152c14.725,8.491,30.598,14.812,47.128,18.768l-26.552,65.504
		c-1.646,4.091,0.329,8.743,4.416,10.4c0.954,0.383,1.972,0.582,3,0.584c3.258,0.001,6.191-1.973,7.416-4.992l27.736-68.416
		c8.131,1.178,16.336,1.776,24.552,1.792c15.485-0.013,30.902-2.057,45.856-6.08c22.943-6.125,44.399-16.855,63.064-31.536
		l58.28,45.424c3.486,2.717,8.515,2.094,11.232-1.392s2.094-8.515-1.392-11.232L360.864,356.306z M285,25.906
		c25.603-6.872,51.93,8.312,58.803,33.915c2.317,8.633,2.178,17.742-0.403,26.301c-0.648-0.464-1.328-0.872-1.976-1.328
		c-1.344-0.96-2.72-1.856-4.096-2.768c-2.475-1.648-4.984-3.229-7.528-4.744c-1.456-0.872-2.92-1.728-4.4-2.552
		c-2.68-1.488-5.4-2.88-8.152-4.224c-1.36-0.664-2.688-1.368-4.056-1.992c-3.92-1.8-7.896-3.472-11.936-4.968l-1.328-0.488
		c-4-1.44-8-2.72-12.064-3.872c-1.504-0.432-3.032-0.8-4.552-1.16c-2.896-0.744-5.792-1.432-8.728-2.016
		c-1.712-0.352-3.432-0.656-5.16-0.944c-2.853-0.485-5.725-0.899-8.616-1.24c-1.664-0.2-3.328-0.408-5-0.56
		c-0.8-0.072-1.544-0.2-2.32-0.264C259.314,39.644,270.917,29.676,285,25.93L285,25.906z M65.6,134.41
		c-6.875-25.58,8.289-51.889,33.869-58.764c0.025-0.007,0.05-0.013,0.075-0.02c4.075-1.094,8.276-1.648,12.496-1.648
		c10.212-0.002,20.156,3.274,28.368,9.344c-0.664,0.456-1.288,0.968-1.952,1.432c-1.288,0.912-2.536,1.864-3.8,2.808
		c-2.432,1.808-4.816,3.675-7.152,5.6c-1.264,1.048-2.52,2.104-3.752,3.2c-2.344,2.056-4.608,4.192-6.832,6.4
		c-1.048,1.016-2.112,2.008-3.136,3.056c-3.08,3.2-6.064,6.4-8.896,9.816c-0.08,0.096-0.176,0.192-0.256,0.296
		c-2.88,3.456-5.6,7.048-8.192,10.72c-0.848,1.192-1.6,2.4-2.448,3.64c-1.736,2.576-3.424,5.184-5.024,7.856
		c-0.856,1.424-1.672,2.872-2.488,4.328c-1.472,2.608-2.869,5.275-4.192,8c-0.72,1.448-1.448,2.888-2.128,4.36
		c-0.336,0.736-0.728,1.44-1.056,2.176C72.575,150.89,67.896,143.059,65.6,134.41L65.6,134.41z M281.304,383.05
		c-85.364,22.836-173.077-27.853-195.913-113.217c-8.607-32.173-6.959-66.231,4.713-97.423c1.6-4.235,3.355-8.381,5.264-12.44
		c11.566-24.406,29.122-45.488,51.032-61.28c3.643-2.619,7.392-5.08,11.248-7.384c24.703-14.829,52.955-22.707,81.768-22.8h3.144
		c4.507,0.064,8.992,0.331,13.456,0.8c26.863,2.729,52.599,12.206,74.816,27.552c3.696,2.56,7.285,5.275,10.768,8.144
		c68.201,56.189,77.938,157.026,21.75,225.226c-21.188,25.717-49.876,44.178-82.062,52.806L281.304,383.05z"/>
	
		<linearGradient id="SVGID_6_" gradientUnits="userSpaceOnUse" x1="-27.9911" y1="615.4641" x2="-27.9911" y2="553.0811" gradientTransform="matrix(8 0 0 -8 455.7277 4909.5552)">
		<stop  offset="0" style="stop-color:#FFF33B"/>
		<stop  offset="0.04" style="stop-color:#FEE72E"/>
		<stop  offset="0.117" style="stop-color:#FED51B"/>
		<stop  offset="0.196" style="stop-color:#FDCA10"/>
		<stop  offset="0.281" style="stop-color:#FDC70C"/>
		<stop  offset="0.669" style="stop-color:#F3903F"/>
		<stop  offset="0.888" style="stop-color:#ED683C"/>
		<stop  offset="1" style="stop-color:#E93E3A"/>
	</linearGradient>
	<path style="fill:url(#SVGID_6_);" d="M251.896,207.706c-3.098-1.765-6.555-2.81-10.112-3.056l-19.008-70.944
		c-1.144-4.268-5.532-6.8-9.8-5.656c-4.268,1.144-6.8,5.532-5.656,9.8l19.016,70.952c-10.857,7.346-13.704,22.103-6.358,32.96
		c0.528,0.78,1.102,1.528,1.718,2.24l-20.728,35.896c-2.234,3.812-0.956,8.713,2.856,10.947c3.812,2.234,8.713,0.956,10.947-2.856
		c0.018-0.03,0.035-0.061,0.053-0.092l20.8-36c13.007,2.311,25.424-6.361,27.735-19.368
		C265.11,222.672,260.536,212.766,251.896,207.706L251.896,207.706z M246.824,232.506c-2.21,3.826-7.103,5.136-10.929,2.926
		c-3.826-2.21-5.136-7.103-2.926-10.929c2.21-3.826,7.103-5.136,10.929-2.926c1.837,1.061,3.177,2.808,3.726,4.857
		C248.173,228.484,247.886,230.668,246.824,232.506z"/>
	
		<linearGradient id="SVGID_7_" gradientUnits="userSpaceOnUse" x1="-10.557" y1="615.4641" x2="-10.557" y2="553.0811" gradientTransform="matrix(8 0 0 -8 455.7277 4909.5552)">
		<stop  offset="0" style="stop-color:#FFF33B"/>
		<stop  offset="0.04" style="stop-color:#FEE72E"/>
		<stop  offset="0.117" style="stop-color:#FED51B"/>
		<stop  offset="0.196" style="stop-color:#FDCA10"/>
		<stop  offset="0.281" style="stop-color:#FDC70C"/>
		<stop  offset="0.669" style="stop-color:#F3903F"/>
		<stop  offset="0.888" style="stop-color:#ED683C"/>
		<stop  offset="1" style="stop-color:#E93E3A"/>
	</linearGradient>
	<path style="fill:url(#SVGID_7_);" d="M363.528,203.378c0.702,0.004,1.402-0.088,2.08-0.272l15.456-4.144
		c4.268-1.147,6.799-5.536,5.652-9.804c-1.147-4.268-5.536-6.799-9.804-5.652l0,0l-15.456,4.152
		c-4.264,1.159-6.781,5.554-5.622,9.818C356.778,200.951,359.927,203.366,363.528,203.378L363.528,203.378z"/>
	
		<linearGradient id="SVGID_8_" gradientUnits="userSpaceOnUse" x1="-22.579" y1="615.4641" x2="-22.579" y2="553.0811" gradientTransform="matrix(8 0 0 -8 455.7277 4909.5552)">
		<stop  offset="0" style="stop-color:#FFF33B"/>
		<stop  offset="0.04" style="stop-color:#FEE72E"/>
		<stop  offset="0.117" style="stop-color:#FED51B"/>
		<stop  offset="0.196" style="stop-color:#FDCA10"/>
		<stop  offset="0.281" style="stop-color:#FDC70C"/>
		<stop  offset="0.669" style="stop-color:#F3903F"/>
		<stop  offset="0.888" style="stop-color:#ED683C"/>
		<stop  offset="1" style="stop-color:#E93E3A"/>
	</linearGradient>
	<path style="fill:url(#SVGID_8_);" d="M280.752,350.106c-1.144-4.268-5.532-6.8-9.8-5.656c-4.268,1.144-6.8,5.532-5.656,9.8
		l4.144,15.456c1.144,4.268,5.532,6.8,9.8,5.656c4.268-1.144,6.8-5.532,5.656-9.8L280.752,350.106z"/>
	
		<linearGradient id="SVGID_9_" gradientUnits="userSpaceOnUse" x1="-43.4104" y1="615.4641" x2="-43.4104" y2="553.0811" gradientTransform="matrix(8 0 0 -8 455.7277 4909.5552)">
		<stop  offset="0" style="stop-color:#FFF33B"/>
		<stop  offset="0.04" style="stop-color:#FEE72E"/>
		<stop  offset="0.117" style="stop-color:#FED51B"/>
		<stop  offset="0.196" style="stop-color:#FDCA10"/>
		<stop  offset="0.281" style="stop-color:#FDC70C"/>
		<stop  offset="0.669" style="stop-color:#F3903F"/>
		<stop  offset="0.888" style="stop-color:#ED683C"/>
		<stop  offset="1" style="stop-color:#E93E3A"/>
	</linearGradient>
	<path style="fill:url(#SVGID_9_);" d="M114.184,253.906l-15.456,4.144c-4.268,1.142-6.802,5.528-5.66,9.796
		c0.937,3.5,4.109,5.933,7.732,5.932c0.702-0.001,1.401-0.092,2.08-0.272l15.456-4.152c4.241-1.239,6.675-5.681,5.436-9.922
		C122.57,255.32,118.344,252.884,114.184,253.906z"/>
	
		<linearGradient id="SVGID_10_" gradientUnits="userSpaceOnUse" x1="-31.3789" y1="615.4641" x2="-31.3789" y2="553.0811" gradientTransform="matrix(8 0 0 -8 455.7277 4909.5552)">
		<stop  offset="0" style="stop-color:#FFF33B"/>
		<stop  offset="0.04" style="stop-color:#FEE72E"/>
		<stop  offset="0.117" style="stop-color:#FED51B"/>
		<stop  offset="0.196" style="stop-color:#FDCA10"/>
		<stop  offset="0.281" style="stop-color:#FDC70C"/>
		<stop  offset="0.669" style="stop-color:#F3903F"/>
		<stop  offset="0.888" style="stop-color:#ED683C"/>
		<stop  offset="1" style="stop-color:#E93E3A"/>
	</linearGradient>
	<path style="fill:url(#SVGID_10_);" d="M206.76,112.866c0.702,0,1.401-0.092,2.08-0.272c4.268-1.144,6.8-5.53,5.656-9.798
		c0-0.001,0-0.001,0-0.002l-4.144-15.456c-1.144-4.268-5.532-6.8-9.8-5.656c-4.268,1.144-6.8,5.532-5.656,9.8l4.144,15.456
		C199.977,110.432,203.142,112.863,206.76,112.866L206.76,112.866z"/>
</g>
<g>
</g>
<g>
</g>
<g>
</g>
<g>
</g>
<g>
</g>
<g>
</g>
<g>
</g>
<g>
</g>
<g>
</g>
<g>
</g>
<g>
</g>
<g>
</g>
<g>
</g>
<g>
</g>
<g>
</g>
</svg>
